<svg width="17" height="17" viewBox="0 0 17 17" fill="none" xmlns="http://www.w3.org/2000/svg">
<g clip-path="url(#clip0_1_91)">
<path d="M8.5 2C6.77609 2 5.12279 2.68482 3.90381 3.90381C2.68482 5.12279 2 6.77609 2 8.5C2 10.2239 2.68482 11.8772 3.90381 13.0962C5.12279 14.3152 6.77609 15 8.5 15C10.2239 15 11.8772 14.3152 13.0962 13.0962C14.3152 11.8772 15 10.2239 15 8.5C15 6.77609 14.3152 5.12279 13.0962 3.90381C11.8772 2.68482 10.2239 2 8.5 2ZM0.5 8.5C0.5 6.37827 1.34285 4.34344 2.84315 2.84315C4.34344 1.34285 6.37827 0.5 8.5 0.5C10.6217 0.5 12.6566 1.34285 14.1569 2.84315C15.6571 4.34344 16.5 6.37827 16.5 8.5C16.5 10.6217 15.6571 12.6566 14.1569 14.1569C12.6566 15.6571 10.6217 16.5 8.5 16.5C6.37827 16.5 4.34344 15.6571 2.84315 14.1569C1.34285 12.6566 0.5 10.6217 0.5 8.5Z" fill="#B3B3B3"/>
<path d="M8.5 3.75C8.69891 3.75 8.88968 3.82902 9.03033 3.96967C9.17098 4.11032 9.25 4.30109 9.25 4.5V7.75H11.5C11.6989 7.75 11.8897 7.82902 12.0303 7.96967C12.171 8.11032 12.25 8.30109 12.25 8.5C12.25 8.69891 12.171 8.88968 12.0303 9.03033C11.8897 9.17098 11.6989 9.25 11.5 9.25H7.75V4.5C7.75 4.30109 7.82902 4.11032 7.96967 3.96967C8.11032 3.82902 8.30109 3.75 8.5 3.75Z" fill="#B3B3B3"/>
</g>
<defs>
<clipPath id="clip0_1_91">
<rect width="16" height="16" fill="white" transform="translate(0.5 0.5)"/>
</clipPath>
</defs>
</svg>
