<svg width="25" height="25" viewBox="0 0 25 25" fill="none" xmlns="http://www.w3.org/2000/svg">
<g opacity="0.7">
<rect x="0.5" y="0.589996" width="24" height="24" rx="2" fill="url(#paint0_linear_1_178)"/>
<g clip-path="url(#clip0_1_178)">
<path d="M18.293 9.75499C18.1634 9.11045 17.8404 8.52071 17.3672 8.06434C16.8939 7.60797 16.2929 7.30664 15.644 7.20049C15.1565 7.12278 14.6577 7.15885 14.1864 7.30587C13.7152 7.45288 13.2843 7.70688 12.9275 8.04799C12.8114 8.15601 12.6586 8.21605 12.5 8.21605C12.3414 8.21605 12.1887 8.15601 12.0725 8.04799C11.4801 7.47497 10.6896 7.1523 9.86544 7.14704C9.04125 7.14178 8.24673 7.45434 7.64704 8.01975C7.04735 8.58516 6.68861 9.35993 6.6454 10.183C6.60219 11.0061 6.87783 11.8141 7.41503 12.4392L11.852 17.7267C11.9314 17.8212 12.0306 17.8972 12.1424 17.9493C12.2543 18.0014 12.3762 18.0284 12.4997 18.0284C12.6231 18.0284 12.745 18.0014 12.8569 17.9493C12.9687 17.8972 13.0679 17.8212 13.1473 17.7267L17.5843 12.4392C17.898 12.075 18.1249 11.6443 18.2477 11.1795C18.3705 10.7147 18.386 10.2281 18.293 9.75649V9.75499Z" fill="white"/>
</g>
</g>
<defs>
<linearGradient id="paint0_linear_1_178" x1="0.5" y1="0.589996" x2="24.5" y2="24.59" gradientUnits="userSpaceOnUse">
<stop stop-color="#450AF5"/>
<stop offset="1" stop-color="#C4EFD9"/>
</linearGradient>
<clipPath id="clip0_1_178">
<rect width="12" height="12" fill="white" transform="translate(6.5 6.59)"/>
</clipPath>
</defs>
</svg>
