<svg width="21" height="22" viewBox="0 0 21 22" fill="none" xmlns="http://www.w3.org/2000/svg">
<path d="M11 2.837C10.848 2.74923 10.6755 2.70303 10.5 2.70303C10.3245 2.70303 10.152 2.74923 10 2.837L2.5 7.167V19.59H7V13.59C7 13.3248 7.10536 13.0704 7.29289 12.8829C7.48043 12.6954 7.73478 12.59 8 12.59H13C13.2652 12.59 13.5196 12.6954 13.7071 12.8829C13.8946 13.0704 14 13.3248 14 13.59V19.59H18.5V7.167L11 2.837ZM9 1.105C9.45606 0.841698 9.97339 0.703079 10.5 0.703079C11.0266 0.703079 11.5439 0.841698 12 1.105L19.5 5.435C19.804 5.61054 20.0565 5.863 20.232 6.16703C20.4076 6.47106 20.5 6.81594 20.5 7.167V20.59C20.5 20.8552 20.3946 21.1096 20.2071 21.2971C20.0196 21.4846 19.7652 21.59 19.5 21.59H13C12.7348 21.59 12.4804 21.4846 12.2929 21.2971C12.1054 21.1096 12 20.8552 12 20.59V14.59H9V20.59C9 20.8552 8.89464 21.1096 8.70711 21.2971C8.51957 21.4846 8.26522 21.59 8 21.59H1.5C1.23478 21.59 0.98043 21.4846 0.792893 21.2971C0.605357 21.1096 0.5 20.8552 0.5 20.59V7.167C0.500009 6.81594 0.592426 6.47106 0.767962 6.16703C0.943498 5.863 1.19597 5.61054 1.5 5.435L9 1.105Z" fill="#B3B3B3"/>
</svg>
