<svg width="21" height="21" viewBox="0 0 21 21" fill="none" xmlns="http://www.w3.org/2000/svg">
<path d="M13 0.723996C13.152 0.636228 13.3245 0.590022 13.5 0.590022C13.6755 0.590022 13.848 0.636228 14 0.723996L20 4.188C20.152 4.27576 20.2783 4.402 20.366 4.55401C20.4538 4.70603 20.5 4.87846 20.5 5.054V19.59C20.5 19.8552 20.3946 20.1096 20.2071 20.2971C20.0196 20.4846 19.7652 20.59 19.5 20.59H13.5C13.2348 20.59 12.9804 20.4846 12.7929 20.2971C12.6054 20.1096 12.5 19.8552 12.5 19.59V1.59C12.5 1.41446 12.5462 1.24203 12.634 1.09001C12.7217 0.937996 12.848 0.811763 13 0.723996ZM14.5 3.322V18.59H18.5V5.631L14.5 3.322ZM1.5 20.59C1.23478 20.59 0.98043 20.4846 0.792893 20.2971C0.605357 20.1096 0.5 19.8552 0.5 19.59V1.59C0.5 1.32478 0.605357 1.07043 0.792893 0.88289C0.98043 0.695353 1.23478 0.589996 1.5 0.589996C1.76522 0.589996 2.01957 0.695353 2.20711 0.88289C2.39464 1.07043 2.5 1.32478 2.5 1.59V19.59C2.5 19.8552 2.39464 20.1096 2.20711 20.2971C2.01957 20.4846 1.76522 20.59 1.5 20.59ZM7.5 20.59C7.23478 20.59 6.98043 20.4846 6.79289 20.2971C6.60536 20.1096 6.5 19.8552 6.5 19.59V1.59C6.5 1.32478 6.60536 1.07043 6.79289 0.88289C6.98043 0.695353 7.23478 0.589996 7.5 0.589996C7.76522 0.589996 8.01957 0.695353 8.20711 0.88289C8.39464 1.07043 8.5 1.32478 8.5 1.59V19.59C8.5 19.8552 8.39464 20.1096 8.20711 20.2971C8.01957 20.4846 7.76522 20.59 7.5 20.59Z" fill="#B3B3B3"/>
</svg>
