<svg width="25" height="25" viewBox="0 0 25 25" fill="none" xmlns="http://www.w3.org/2000/svg">
<g clip-path="url(#clip0_64_2280)">
<path d="M12.5 25C19.4036 25 25 19.4036 25 12.5C25 5.59644 19.4036 0 12.5 0C5.59644 0 0 5.59644 0 12.5C0 19.4036 5.59644 25 12.5 25Z" fill="white"/>
<path d="M18.9655 12.4999L9.48279 18.9655V6.03442L18.9655 12.4999Z" fill="black"/>
<path d="M9.48279 19.3965C9.42617 19.3966 9.3701 19.3854 9.31778 19.3638C9.26546 19.3422 9.21792 19.3104 9.17788 19.2704C9.13784 19.2303 9.1061 19.1828 9.08445 19.1305C9.06281 19.0782 9.0517 19.0221 9.05176 18.9655V6.03442C9.05159 5.95593 9.07288 5.87888 9.11334 5.81161C9.15379 5.74434 9.21186 5.6894 9.28127 5.65275C9.35068 5.61609 9.42879 5.5991 9.50715 5.60362C9.58552 5.60814 9.66116 5.63399 9.7259 5.67839L19.2087 12.1439C19.2665 12.1836 19.3138 12.2367 19.3465 12.2988C19.3792 12.3608 19.3962 12.4299 19.3962 12.5001C19.3961 12.5702 19.379 12.6393 19.3462 12.7013C19.3135 12.7633 19.2661 12.8164 19.2082 12.856L9.72547 19.3215C9.65392 19.3703 9.56937 19.3964 9.48279 19.3965ZM9.91383 6.85037V18.1499L18.2005 12.4999L9.91383 6.85037Z" fill="black"/>
</g>
<defs>
<clipPath id="clip0_64_2280">
<rect width="25" height="25" fill="white"/>
</clipPath>
</defs>
</svg>
