<svg width="23" height="23" viewBox="0 0 23 23" fill="none" xmlns="http://www.w3.org/2000/svg">
<path d="M10.033 0.868996C4.85298 0.868996 0.625977 5.009 0.625977 10.148C0.625977 15.287 4.85198 19.427 10.033 19.427C12.267 19.427 14.323 18.657 15.94 17.369L20.293 21.722C20.3852 21.8175 20.4956 21.8937 20.6176 21.9461C20.7396 21.9985 20.8708 22.0261 21.0036 22.0272C21.1364 22.0284 21.268 22.0031 21.3909 21.9528C21.5138 21.9025 21.6255 21.8283 21.7194 21.7344C21.8133 21.6405 21.8875 21.5288 21.9378 21.406C21.9881 21.2831 22.0134 21.1514 22.0122 21.0186C22.0111 20.8858 21.9835 20.7546 21.9311 20.6326C21.8787 20.5106 21.8025 20.4002 21.707 20.308L17.363 15.964C18.7079 14.3243 19.442 12.2687 19.44 10.148C19.44 5.008 15.214 0.867996 10.033 0.867996V0.868996ZM2.62598 10.148C2.62598 6.142 5.92798 2.868 10.033 2.868C14.138 2.868 17.44 6.142 17.44 10.148C17.44 14.154 14.138 17.427 10.033 17.427C5.92798 17.427 2.62598 14.155 2.62598 10.148Z" fill="#B3B3B3"/>
</svg>
