<svg width="512" height="512" viewBox="0 0 512 512" fill="none" xmlns="http://www.w3.org/2000/svg">
<path d="M256 32C132.267 32 32 132.267 32 256C32 379.733 132.267 480 256 480C379.733 480 480 379.733 480 256C480 132.267 379.733 32 256 32ZM138.667 421.333V384C138.667 353.067 150.4 323.2 172.8 300.8C195.2 278.4 224 266.667 256 266.667C286.933 266.667 316.8 278.4 339.2 300.8C361.6 323.2 373.333 352 373.333 384V421.333C340.267 444.8 299.733 458.667 256 458.667C212.267 458.667 171.733 444.8 138.667 421.333ZM202.667 192C202.667 162.133 226.133 138.667 256 138.667C285.867 138.667 309.333 162.133 309.333 192C309.333 221.867 285.867 245.333 256 245.333C226.133 245.333 202.667 221.867 202.667 192ZM394.667 403.2V384C394.667 346.667 379.733 312.533 354.133 285.867C338.133 269.867 320 259.2 299.733 252.8C318.933 238.933 330.667 217.6 330.667 192C330.667 150.4 297.6 117.333 256 117.333C214.4 117.333 181.333 150.4 181.333 192C181.333 216.533 193.067 238.933 212.267 252.8C192 259.2 173.867 270.933 157.867 285.867C132.267 312.533 117.333 346.667 117.333 384V403.2C77.8667 366.933 53.3333 313.6 53.3333 256C53.3333 144 144 53.3333 256 53.3333C368 53.3333 458.667 144 458.667 256C458.667 313.6 434.133 366.933 394.667 403.2Z" fill="white"/>
</svg>
