<svg width="25" height="4" viewBox="0 0 25 4" fill="none" xmlns="http://www.w3.org/2000/svg">
<path d="M2.5 4C3.03043 4 3.53914 3.78929 3.91421 3.41421C4.28929 3.03914 4.5 2.53043 4.5 2C4.5 1.46957 4.28929 0.960859 3.91421 0.585786C3.53914 0.210713 3.03043 0 2.5 0C1.96957 0 1.46086 0.210713 1.08579 0.585786C0.710714 0.960859 0.5 1.46957 0.5 2C0.5 2.53043 0.710714 3.03914 1.08579 3.41421C1.46086 3.78929 1.96957 4 2.5 4ZM22.5 4C23.0304 4 23.5391 3.78929 23.9142 3.41421C24.2893 3.03914 24.5 2.53043 24.5 2C24.5 1.46957 24.2893 0.960859 23.9142 0.585786C23.5391 0.210713 23.0304 0 22.5 0C21.9696 0 21.4609 0.210713 21.0858 0.585786C20.7107 0.960859 20.5 1.46957 20.5 2C20.5 2.53043 20.7107 3.03914 21.0858 3.41421C21.4609 3.78929 21.9696 4 22.5 4ZM12.5 4C13.0304 4 13.5391 3.78929 13.9142 3.41421C14.2893 3.03914 14.5 2.53043 14.5 2C14.5 1.46957 14.2893 0.960859 13.9142 0.585786C13.5391 0.210713 13.0304 0 12.5 0C11.9696 0 11.4609 0.210713 11.0858 0.585786C10.7107 0.960859 10.5 1.46957 10.5 2C10.5 2.53043 10.7107 3.03914 11.0858 3.41421C11.4609 3.78929 11.9696 4 12.5 4Z" fill="white" fill-opacity="0.6"/>
</svg>
