<svg width="10" height="16" viewBox="0 0 10 16" fill="none" xmlns="http://www.w3.org/2000/svg">
<path d="M9.53 0.470004C9.67045 0.610629 9.74934 0.801253 9.74934 1C9.74934 1.19875 9.67045 1.38938 9.53 1.53L3.06 8L9.53 14.47C9.60369 14.5387 9.66279 14.6215 9.70378 14.7135C9.74477 14.8055 9.76682 14.9048 9.76859 15.0055C9.77037 15.1062 9.75185 15.2062 9.71412 15.2996C9.6764 15.393 9.62026 15.4778 9.54904 15.549C9.47782 15.6203 9.39299 15.6764 9.2996 15.7141C9.20621 15.7518 9.10618 15.7704 9.00548 15.7686C8.90478 15.7668 8.80546 15.7448 8.71346 15.7038C8.62146 15.6628 8.53866 15.6037 8.47 15.53L0.940002 8L8.47 0.470004C8.61063 0.329553 8.80125 0.250664 9 0.250664C9.19875 0.250664 9.38938 0.329553 9.53 0.470004Z" fill="white"/>
</svg>
