<svg width="31" height="30" viewBox="0 0 31 30" fill="none" xmlns="http://www.w3.org/2000/svg">
<path d="M6.44669 1.09334C7.98531 0.603737 9.62723 0.536623 11.2007 0.899022C12.7741 1.26142 14.2213 2.04001 15.3907 3.15334C15.421 3.18033 15.4601 3.19524 15.5007 3.19524C15.5413 3.19524 15.5804 3.18033 15.6107 3.15334C16.6123 2.19762 17.8211 1.48619 19.1428 1.07451C20.4646 0.662831 21.8636 0.562044 23.2307 0.780007L23.236 0.78134C25.0561 1.07915 26.7422 1.92478 28.0693 3.20547C29.3964 4.48615 30.3016 6.14101 30.664 7.94934V7.95334C30.9255 9.27853 30.8825 10.6458 30.5383 11.952C30.1942 13.2581 29.5579 14.469 28.6774 15.4933L18.072 28.1333C17.7569 28.5087 17.3634 28.8105 16.9192 29.0176C16.475 29.2247 15.9908 29.332 15.5007 29.332C15.0106 29.332 14.5264 29.2247 14.0822 29.0176C13.638 28.8105 13.2445 28.5087 12.9294 28.1333L2.32669 15.4933C1.44479 14.4695 0.807282 13.2586 0.462405 11.952C0.117527 10.6455 0.0743092 9.27769 0.336022 7.95201C0.645747 6.36579 1.37646 4.89209 2.45157 3.68538C3.52668 2.47867 4.9066 1.58337 6.44669 1.09334ZM10.6067 3.49734C9.77715 3.30569 8.91751 3.283 8.07901 3.43065C7.24052 3.57829 6.44033 3.89323 5.72614 4.35671C5.01196 4.82018 4.39839 5.4227 3.92201 6.12835C3.44564 6.834 3.11621 7.62833 2.95336 8.46401L2.95202 8.46667C2.76804 9.39707 2.79836 10.3571 3.04071 11.2741C3.28305 12.191 3.73104 13.0407 4.35069 13.7587L4.36269 13.772L14.9734 26.4187C15.0382 26.4951 15.1189 26.5565 15.2098 26.5986C15.3008 26.6407 15.3998 26.6625 15.5 26.6625C15.6002 26.6625 15.6993 26.6407 15.7902 26.5986C15.8812 26.5565 15.9619 26.4951 16.0267 26.4187L26.6507 13.7587C27.2692 13.0411 27.7165 12.1923 27.9588 11.2764C28.2011 10.3605 28.2321 9.40159 28.0494 8.47201C27.7932 7.19614 27.1543 6.0286 26.218 5.12487C25.2816 4.22115 24.0922 3.62413 22.808 3.41334C21.8453 3.25988 20.8602 3.3312 19.9297 3.62172C18.9991 3.91224 18.1484 4.41409 17.444 5.08801L17.4334 5.09867C16.909 5.58899 16.2179 5.86176 15.5 5.86176C14.7821 5.86176 14.0911 5.58899 13.5667 5.09867L13.5574 5.08934C12.734 4.30341 11.7157 3.75352 10.6067 3.49734Z" fill="white" fill-opacity="0.7"/>
</svg>
