<svg width="1024" height="1024" viewBox="0 0 1024 1024" fill="none" xmlns="http://www.w3.org/2000/svg">
<path d="M508.219 1022.99C532.084 1022.99 553.932 1016.86 573.763 1004.59C593.594 992.32 609.056 975.934 620.148 955.431C601.997 956.776 583.595 957.784 564.94 958.456C546.285 959.128 527.378 959.464 508.219 959.464C470.237 959.464 432.927 958.12 396.29 955.431C407.382 975.934 422.844 992.32 442.675 1004.59C462.506 1016.86 484.354 1022.99 508.219 1022.99ZM828.88 406.877C826.863 384.357 822.158 362.257 814.763 340.577C807.368 318.897 797.705 298.646 785.772 279.823C773.839 261 760.058 243.522 744.429 227.388C728.8 211.254 711.573 196.885 692.75 184.28C673.927 171.675 654.095 161.508 633.256 153.777C633.928 149.408 634.432 145.71 634.769 142.685C635.106 139.66 635.274 136.635 635.273 133.61C635.273 98.6534 622.836 68.7384 597.963 43.8651C573.09 18.9917 543.175 6.55505 508.218 6.55505C473.261 6.55505 443.346 18.9917 418.473 43.8651C393.6 68.7384 381.163 98.6534 381.163 133.61C381.163 138.316 381.835 145.038 383.18 153.777C330.073 174.28 285.452 207.473 249.319 253.354C213.186 299.235 192.598 350.41 187.556 406.878L162.347 689.222C146.885 694.6 133.104 700.398 121.004 706.616C108.904 712.834 98.5684 719.22 89.9971 725.775C81.4257 732.33 74.8714 739.304 70.3341 746.699C65.7967 754.094 63.5281 761.488 63.5281 768.883C63.5281 791.74 83.3594 812.999 123.022 832.662C162.685 852.325 216.632 867.786 284.865 879.047C353.098 890.308 427.549 895.938 508.219 895.937C588.889 895.936 663.34 890.306 731.573 879.047C799.806 867.788 853.753 852.326 893.416 832.662C933.079 812.998 952.91 791.738 952.91 768.883C952.91 758.799 948.961 749.051 941.062 739.64C933.163 730.229 921.903 721.321 907.282 712.918C892.661 704.515 874.93 696.616 854.09 689.221L828.88 406.877ZM508.219 53.9481C530.067 53.9481 548.806 61.7631 564.436 77.3931C580.066 93.0231 587.881 111.762 587.881 133.61C587.881 134.282 587.713 134.954 587.377 135.627C587.041 136.3 586.789 136.972 586.621 137.644C586.453 138.316 586.369 138.82 586.369 139.157C567.546 135.46 548.723 133.611 529.9 133.611H486.54C467.717 133.611 448.894 135.628 430.071 139.661C430.071 138.989 429.819 137.981 429.315 136.636C428.811 135.291 428.559 134.283 428.559 133.611C428.559 122.855 430.66 112.603 434.861 102.856C439.062 93.1087 444.776 84.6217 452.003 77.3951C459.23 70.1684 467.717 64.4544 477.464 60.2531C487.211 56.0517 497.463 53.9511 508.219 53.9511V53.9481Z" fill="white"/>
</svg>
