<svg width="25" height="25" viewBox="0 0 25 25" fill="none" xmlns="http://www.w3.org/2000/svg">
<g clip-path="url(#clip0_64_2270)">
<path d="M12.5 25.0001C19.4036 25.0001 25.0001 19.4036 25.0001 12.5C25.0001 5.59645 19.4036 0 12.5 0C5.59645 0 0 5.59645 0 12.5C0 19.4036 5.59645 25.0001 12.5 25.0001Z" fill="white"/>
<path d="M17.099 7.79414C17.099 7.45052 16.8203 7.17163 16.4764 7.17163H14.0686C13.7243 7.17163 13.4456 7.45052 13.4456 7.79414V13.9508L17.0989 10.2973L17.099 7.79414Z" fill="#4D4D4D"/>
<path d="M17.099 17.2046C17.099 17.5484 16.8203 17.8271 16.4764 17.8271H14.0686C13.7243 17.8271 13.4456 17.5485 13.4456 17.2046V7.79414C13.4456 7.45052 13.7243 7.17163 14.0686 7.17163H16.4764C16.8202 7.17163 17.099 7.45052 17.099 7.79414V17.2046ZM11.5532 17.2046C11.5532 17.5484 11.2745 17.8271 10.9306 17.8271H8.52219C8.17836 17.8271 7.89963 17.5485 7.89963 17.2046V7.79414C7.89963 7.45052 8.17831 7.17163 8.52219 7.17163H10.9304C11.2742 7.17163 11.5529 7.45052 11.5529 7.79414V17.2046H11.5532Z" fill="black"/>
</g>
<defs>
<clipPath id="clip0_64_2270">
<rect width="25" height="25" fill="white"/>
</clipPath>
</defs>
</svg>
