<svg width="57" height="57" viewBox="0 0 57 57" fill="none" xmlns="http://www.w3.org/2000/svg">
<rect x="0.559753" y="0.675781" width="56" height="56" rx="28" fill="#1ED760"/>
<g clip-path="url(#clip0_44_1442)">
<path d="M22.7848 18.8829L38.5231 27.9689C38.6471 28.0406 38.7501 28.1436 38.8217 28.2677C38.8933 28.3918 38.931 28.5326 38.931 28.6759C38.931 28.8191 38.8933 28.9599 38.8217 29.084C38.7501 29.2081 38.6471 29.3111 38.5231 29.3828L22.7848 38.4688C22.6606 38.5405 22.5198 38.5782 22.3765 38.5783C22.2332 38.5783 22.0923 38.5406 21.9682 38.4689C21.8441 38.3973 21.741 38.2942 21.6693 38.1701C21.5976 38.046 21.5598 37.9052 21.5598 37.7618V19.5898C21.5598 19.4465 21.5976 19.3057 21.6693 19.1816C21.741 19.0575 21.8441 18.9544 21.9682 18.8828C22.0923 18.8111 22.2332 18.7734 22.3765 18.7734C22.5198 18.7734 22.6606 18.8112 22.7848 18.8829Z" fill="black"/>
</g>
<defs>
<clipPath id="clip0_44_1442">
<rect width="28" height="28" fill="white" transform="translate(14.5598 14.6758)"/>
</clipPath>
</defs>
</svg>
