<svg width="57" height="57" viewBox="0 0 57 57" fill="none" xmlns="http://www.w3.org/2000/svg">
<rect x="0.820923" y="0.567383" width="56" height="56" rx="28" fill="#1ED760"/>
<g clip-path="url(#clip0_45_1943)">
<path d="M21.65 18.5C21.4334 18.5 21.2257 18.586 21.0726 18.7392C20.9194 18.8924 20.8334 19.1001 20.8334 19.3167V38.6833C20.8334 38.8999 20.9194 39.1076 21.0726 39.2608C21.2257 39.414 21.4334 39.5 21.65 39.5H24.6834C24.9 39.5 25.1077 39.414 25.2608 39.2608C25.414 39.1076 25.5 38.8999 25.5 38.6833V19.3167C25.5 19.1001 25.414 18.8924 25.2608 18.7392C25.1077 18.586 24.9 18.5 24.6834 18.5H21.65ZM33.3167 18.5C33.1001 18.5 32.8924 18.586 32.7392 18.7392C32.5861 18.8924 32.5 19.1001 32.5 19.3167V38.6833C32.5 38.8999 32.5861 39.1076 32.7392 39.2608C32.8924 39.414 33.1001 39.5 33.3167 39.5H36.35C36.5666 39.5 36.7744 39.414 36.9275 39.2608C37.0807 39.1076 37.1667 38.8999 37.1667 38.6833V19.3167C37.1667 19.1001 37.0807 18.8924 36.9275 18.7392C36.7744 18.586 36.5666 18.5 36.35 18.5H33.3167Z" fill="black"/>
</g>
<defs>
<clipPath id="clip0_45_1943">
<rect width="28" height="28" fill="white" transform="translate(14.8209 14.5674)"/>
</clipPath>
</defs>
</svg>
