<svg width="25" height="25" viewBox="0 0 25 25" fill="none" xmlns="http://www.w3.org/2000/svg">
<rect x="0.5" y="0.589996" width="24" height="24" rx="2" fill="white"/>
<g clip-path="url(#clip0_1_171)">
<path d="M17.9375 12.59C17.9375 12.7392 17.8782 12.8823 17.7727 12.9877C17.6673 13.0932 17.5242 13.1525 17.375 13.1525H13.0625V17.465C13.0625 17.6142 13.0032 17.7573 12.8977 17.8627C12.7923 17.9682 12.6492 18.0275 12.5 18.0275C12.3508 18.0275 12.2077 17.9682 12.1023 17.8627C11.9968 17.7573 11.9375 17.6142 11.9375 17.465V13.1525H7.625C7.47582 13.1525 7.33274 13.0932 7.22725 12.9877C7.12176 12.8823 7.0625 12.7392 7.0625 12.59C7.0625 12.4408 7.12176 12.2977 7.22725 12.1922C7.33274 12.0868 7.47582 12.0275 7.625 12.0275H11.9375V7.715C11.9375 7.56581 11.9968 7.42274 12.1023 7.31725C12.2077 7.21176 12.3508 7.1525 12.5 7.1525C12.6492 7.1525 12.7923 7.21176 12.8977 7.31725C13.0032 7.42274 13.0625 7.56581 13.0625 7.715V12.0275H17.375C17.5242 12.0275 17.6673 12.0868 17.7727 12.1922C17.8782 12.2977 17.9375 12.4408 17.9375 12.59Z" fill="black"/>
</g>
<defs>
<clipPath id="clip0_1_171">
<rect width="12" height="12" fill="white" transform="translate(6.5 6.59)"/>
</clipPath>
</defs>
</svg>
