<svg width="970" height="845" viewBox="0 0 970 845" fill="none" xmlns="http://www.w3.org/2000/svg">
<path d="M612.273 780.937V526.828C612.273 509.349 606.055 494.392 593.618 481.956C581.181 469.52 566.224 463.302 548.746 463.301H421.691C404.212 463.301 389.255 469.519 376.819 481.956C364.383 494.393 358.165 509.35 358.164 526.828V780.937H167.582V400.277L104.055 445.654V780.937C104.055 798.416 110.273 813.373 122.71 825.809C135.147 838.245 150.104 844.463 167.582 844.464H802.855C820.334 844.464 835.291 838.246 847.727 825.809C860.163 813.372 866.381 798.415 866.382 780.937V445.654L802.855 400.277V780.937H612.273ZM559.838 23.147C546.057 13.3996 530.175 6.76129 512.193 3.23196C494.211 -0.297372 476.228 -0.297372 458.245 3.23196C440.262 6.76129 424.38 13.3996 410.6 23.147L17.3361 303.978C8.59674 310.365 3.30274 318.936 1.45408 329.691C-0.394591 340.446 1.87408 350.278 8.26008 359.186C14.6461 368.094 23.2171 373.472 33.9731 375.32C44.7291 377.168 54.6447 374.899 63.7201 368.514L456.48 87.683C463.875 82.641 473.454 80.12 485.219 80.12C496.984 80.12 506.563 82.641 513.958 87.683L906.718 368.514C913.777 373.556 921.508 376.077 929.911 376.077C943.692 376.077 954.448 370.531 962.179 359.439C968.566 350.364 970.834 340.448 968.985 329.692C967.136 318.936 961.842 310.365 953.103 303.979L559.839 23.148L559.838 23.147Z" fill="white"/>
</svg>
