<svg width="636" height="762" viewBox="0 0 636 762" fill="none" xmlns="http://www.w3.org/2000/svg">
<path d="M572.328 245.139C572.328 212.199 565.858 180.603 552.917 150.352C539.976 120.101 522.666 94.0509 500.986 72.2029C479.306 50.3549 453.509 32.9606 423.594 20.0199C393.679 7.07923 362.252 0.608887 329.311 0.608887H307.127C288.304 0.608887 269.818 2.70956 251.667 6.91089C233.516 11.1122 216.458 17.2466 200.492 25.3139C184.526 33.3812 169.484 42.9609 155.367 54.0529C141.25 65.1449 128.645 77.7496 117.553 91.8669C106.461 105.984 96.8814 121.026 88.8141 136.992C80.7467 152.958 74.6124 170.016 70.4111 188.167C66.2097 206.318 64.1091 224.804 64.1091 243.627V318.246C46.2944 320.599 31.2527 328.582 18.9841 342.195C6.71539 355.808 0.581055 371.69 0.581055 389.84V688.318C0.581055 701.427 3.85839 713.611 10.4131 724.871C16.9677 736.131 25.8751 745.038 37.1351 751.593C48.3951 758.148 60.5794 761.425 73.688 761.425H562.748C575.857 761.425 588.041 758.148 599.301 751.593C610.561 745.038 619.468 736.131 626.023 724.871C632.578 713.611 635.855 701.427 635.855 688.318V391.353C635.855 379.252 632.998 367.992 627.284 357.573C621.57 347.154 613.839 338.667 604.091 332.112C594.343 325.557 583.755 321.44 572.327 319.759V245.14L572.328 245.139ZM329.311 64.1359C353.512 64.1359 376.704 68.9256 398.889 78.5049C421.074 88.0842 440.149 100.857 456.114 116.823C472.079 132.789 484.852 151.864 494.432 174.048C504.012 196.232 508.802 219.425 508.801 243.626V318.245H127.637V243.626C127.637 219.425 132.427 196.233 142.006 174.048C151.585 151.863 164.358 132.788 180.324 116.823C196.29 100.858 215.365 88.0849 237.549 78.5049C259.733 68.9249 282.926 64.1352 307.127 64.1359H329.311Z" fill="white"/>
</svg>
