<svg width="876" height="875" viewBox="0 0 876 875" fill="none" xmlns="http://www.w3.org/2000/svg">
<path d="M669.236 395.329C650.413 414.152 625.204 420.874 593.608 415.496C562.012 410.118 533.105 394.32 506.888 368.103C480.671 341.886 464.873 312.979 459.495 281.383C454.117 249.787 460.839 224.578 479.662 205.755L479.158 205.251L153.454 530.955C141.017 543.392 128.161 559.778 114.884 580.113C101.607 600.448 91.6077 618.683 84.885 634.817L5.22402 834.474C2.87135 840.524 1.44269 846.07 0.938025 851.112C0.433358 856.154 0.853353 860.356 2.19802 863.717C3.54269 867.078 5.81135 869.683 9.00402 871.532C12.1967 873.381 15.978 874.305 20.348 874.305C26.398 874.305 33.1204 872.792 40.515 869.767L240.172 790.106C250.928 785.737 262.86 779.77 275.969 772.207C289.078 764.644 301.682 756.325 313.783 747.25C325.884 738.175 335.967 729.604 344.034 721.537L669.738 395.833L669.234 395.329H669.236ZM67.239 807.753L129.254 652.464C134.632 639.355 143.119 623.978 154.715 606.331C166.311 588.684 177.151 574.819 187.235 564.736L218.494 533.477C225.553 562.384 240.594 588.349 263.619 611.374C286.644 634.399 312.609 649.44 341.516 656.499L310.257 687.758C300.173 697.842 286.308 708.682 268.662 720.278C251.016 731.874 235.638 740.361 222.529 745.739L67.24 807.754L67.239 807.753ZM826.037 48.9541C810.239 33.1561 793.013 21.0558 774.358 12.6531C755.703 4.25043 737.637 0.0487624 720.158 0.0480957C696.965 0.0480957 678.142 7.27476 663.689 21.7281L663.185 21.2241L547.222 137.187V137.691C528.735 156.514 522.181 181.723 527.559 213.319C532.937 244.915 548.735 273.822 574.952 300.039C601.169 326.256 630.076 342.054 661.672 347.432C693.268 352.81 718.477 346.088 737.3 327.265L737.804 327.769L853.767 211.806L853.263 211.302C859.313 205.252 864.187 198.109 867.884 189.874C871.581 181.639 873.85 173.068 874.69 164.161C875.53 155.254 875.11 145.843 873.43 135.927C871.75 126.011 868.893 116.095 864.859 106.18C860.825 96.2648 855.447 86.4331 848.725 76.6851C842.003 66.9371 834.44 57.6928 826.037 48.9541ZM720.159 31.8121C729.234 31.8121 738.646 33.4088 748.393 36.6021C758.14 39.7954 767.72 44.3331 777.132 50.2151C786.544 56.0971 795.283 63.2398 803.35 71.6431C824.862 92.8191 837.803 116.012 842.172 141.221C842.508 144.582 842.76 148.028 842.928 151.557C843.096 155.086 842.928 159.12 842.424 163.657C841.92 168.194 840.744 172.648 838.895 177.018C837.046 181.388 834.441 185.253 831.08 188.614C823.013 196.681 811.585 200.714 796.795 200.714C783.35 200.714 769.233 197.269 754.443 190.378C739.653 183.487 726.04 173.824 713.604 161.387C700.831 148.614 690.916 134.581 683.857 119.288C676.798 103.995 673.437 89.6254 673.773 76.1801C674.109 62.7348 678.311 51.9788 686.378 43.9121C694.445 35.8454 705.706 31.8121 720.159 31.8121Z" fill="white"/>
</svg>
