<svg width="10" height="16" viewBox="0 0 10 16" fill="none" xmlns="http://www.w3.org/2000/svg">
<path d="M0.46997 0.470004C0.32952 0.610629 0.25063 0.801253 0.25063 1C0.25063 1.19875 0.32952 1.38938 0.46997 1.53L6.93997 8L0.46997 14.47C0.396283 14.5387 0.337181 14.6215 0.296189 14.7135C0.255197 14.8055 0.233156 14.9048 0.231379 15.0055C0.229602 15.1062 0.248127 15.2062 0.285848 15.2996C0.323569 15.393 0.379713 15.4778 0.450932 15.549C0.522151 15.6203 0.606984 15.6764 0.700373 15.7141C0.793761 15.7518 0.89379 15.7704 0.994493 15.7686C1.0952 15.7668 1.19451 15.7448 1.28651 15.7038C1.37851 15.6628 1.46131 15.6037 1.52997 15.53L9.05997 8L1.52997 0.470004C1.38935 0.329553 1.19872 0.250664 0.99997 0.250664C0.80122 0.250664 0.610595 0.329553 0.46997 0.470004Z" fill="white"/>
</svg>
